<?xml version="1.0" encoding="UTF-8" standalone="no"?>
<!-- Created with Inkscape (http://www.inkscape.org/) -->

<svg
   xmlns:dc="http://purl.org/dc/elements/1.1/"
   xmlns:cc="http://creativecommons.org/ns#"
   xmlns:rdf="http://www.w3.org/1999/02/22-rdf-syntax-ns#"
   xmlns:svg="http://www.w3.org/2000/svg"
   xmlns="http://www.w3.org/2000/svg"
   xmlns:sodipodi="http://sodipodi.sourceforge.net/DTD/sodipodi-0.dtd"
   xmlns:inkscape="http://www.inkscape.org/namespaces/inkscape"
   id="svg2"
   version="1.1"
   inkscape:version="0.91 r13725"
   width="60"
   height="60"
   viewBox="0 0 60 60"
   sodipodi:docname="icon.svg"
   inkscape:export-filename="/home/fde/workspace/odoo9/odoo-tools/fsm/static/description/icon.png"
   inkscape:export-xdpi="300"
   inkscape:export-ydpi="300">
  <sodipodi:namedview
     pagecolor="#ffffff"
     bordercolor="#666666"
     borderopacity="1"
     objecttolerance="10"
     gridtolerance="10"
     guidetolerance="10"
     inkscape:pageopacity="0"
     inkscape:pageshadow="2"
     inkscape:window-width="1920"
     inkscape:window-height="1173"
     id="namedview4"
     showgrid="false"
     inkscape:zoom="8"
     inkscape:cx="17.422148"
     inkscape:cy="13.57291"
     inkscape:window-x="0"
     inkscape:window-y="27"
     inkscape:window-maximized="1"
     inkscape:current-layer="svg2"
     showguides="false" />
  <metadata
     id="metadata8">
    <rdf:RDF>
      <cc:Work
         rdf:about="">
        <dc:format>image/svg+xml</dc:format>
        <dc:type
           rdf:resource="http://purl.org/dc/dcmitype/StillImage" />
        <dc:title />
      </cc:Work>
    </rdf:RDF>
  </metadata>
  <defs
     id="defs6">
    <clipPath
       clipPathUnits="userSpaceOnUse"
       id="clipPath4612">
      <rect
         style="opacity:1;fill:#43a047;fill-opacity:1;stroke:none;stroke-width:2.79999995;stroke-miterlimit:18.625;stroke-dasharray:none;stroke-opacity:1"
         id="rect4614"
         width="60.003906"
         height="59.996094"
         x="-0.0045283516"
         y="0.00016264161"
         inkscape:export-xdpi="300"
         inkscape:export-ydpi="300" />
    </clipPath>
    <clipPath
       id="clipPath4803"
       clipPathUnits="userSpaceOnUse">
      <rect
         style="opacity:1;fill:#43a047;fill-opacity:1;stroke:none;stroke-width:2.79999995;stroke-miterlimit:18.625;stroke-dasharray:none;stroke-opacity:1"
         id="rect4805"
         width="60.003906"
         height="59.996094"
         x="-0.0045283516"
         y="0.00016264161"
         inkscape:export-xdpi="300"
         inkscape:export-ydpi="300" />
    </clipPath>
    <clipPath
       clipPathUnits="userSpaceOnUse"
       id="clipPath5307">
      <rect
         style="opacity:1;fill:#43a047;fill-opacity:1;stroke:none;stroke-width:2.79999995;stroke-miterlimit:18.625;stroke-dasharray:none;stroke-opacity:1"
         id="rect5309"
         width="60.003906"
         height="59.996094"
         x="-0.0045283516"
         y="0.00016264161"
         inkscape:export-xdpi="300"
         inkscape:export-ydpi="300" />
    </clipPath>
  </defs>
  <rect
     inkscape:export-ydpi="300"
     inkscape:export-xdpi="300"
     y="0.00016264161"
     x="-0.0045283516"
     height="59.996094"
     width="60.003906"
     id="rect4255"
     style="opacity:1;fill:#00897b;fill-opacity:1;stroke:none;stroke-width:2.79999995;stroke-miterlimit:18.625;stroke-dasharray:none;stroke-opacity:1" />
  <g
     id="g5085"
     clip-path="url(#clipPath5307)">
    <g
       id="g5087"
       style="fill:#000000;fill-opacity:1;opacity:0.314">
      <path
         id="path5089"
         d="M31.304688 13.017578C31.265088 13.023104 31.226827 13.040189 31.195312 13.068359L-110.226044237 154.489715237C-110.194529237 154.461545237 -110.156268237 154.444460237 -110.116668237 154.438934237Z" />
      <path
         id="path5091"
         d="M31.195312 13.068359C31.1929529814 13.070502663 31.1906541091 13.0726948588 31.1884158583 13.0749331096L-110.232940379 154.496289347C-110.230702128 154.494051096 -110.228403256 154.4918589 -110.226044237 154.489715237Z" />
      <path
         id="path5093"
         d="M31.1884158583 13.0749331096C31.1318281414 13.1315208265 31.113988807 13.2175462453 31.142578 13.292969L-110.278778237 154.714325237C-110.30736743 154.638902483 -110.289528096 154.552877064 -110.232940379 154.496289347Z" />
      <path
         id="path5095"
         d="M31.142578 13.292969L31.978516 15.501953L-109.442840237 156.923309237L-110.278778237 154.714325237Z" />
      <path
         id="path5097"
         d="M31.978516 15.501953L25.330078 15.501953L-116.091278237 156.923309237L-109.442840237 156.923309237Z" />
      <path
         id="path5099"
         d="M25.330078 15.501953C25.0174765234 15.501953 24.7348107039 15.6284087785 24.5302707954 15.832948687L-116.891085442 157.254304924C-116.686545533 157.049765016 -116.403879714 156.923309237 -116.091278237 156.923309237Z" />
      <path
         id="path5101"
         d="M24.5302707954 15.832948687C24.3256516841 16.0375677983 24.199219 16.3203315234 24.199219 16.632812L-117.222137237 158.054168237C-117.222137237 157.741687761 -117.095704553 157.458924036 -116.891085442 157.254304924Z" />
      <path
         id="path5103"
         d="M24.199219 16.632812L24.199219 28.867188L-117.222137237 170.288544237L-117.222137237 158.054168237Z" />
      <path
         id="path5105"
         d="M24.199219 28.867188L21.896484 28.867188L-119.524872237 170.288544237L-117.222137237 170.288544237Z" />
      <path
         id="path5107"
         d="M21.896484 28.867188C21.391632 26.924256 19.64214 25.482422 17.541016 25.482422L-123.880340237 166.903778237C-121.779216237 166.903778237 -120.029724237 168.345612237 -119.524872237 170.288544237Z" />
      <path
         id="path5109"
         d="M17.541016 25.482422C16.2950631724 25.482422 15.1669291101 25.9876167422 14.3501413457 26.8044045067L-127.071214892 168.225760744C-126.254427127 167.40897298 -125.126293065 166.903778237 -123.880340237 166.903778237Z" />
      <path
         id="path5111"
         d="M14.3501413457 26.8044045067C13.5328944683 27.6216513841 13.027344 28.7508416725 13.027344 29.998047L-128.394012237 171.419403237C-128.394012237 170.17219791 -127.888461769 169.043007621 -127.071214892 168.225760744Z" />
      <path
         id="path5113"
         d="M13.027344 29.998047C13.027344 32.491688 15.048341 34.513672 17.541016 34.513672L-123.880340237 175.935028237C-126.373015237 175.935028237 -128.394012237 173.913044237 -128.394012237 171.419403237Z" />
      <path
         id="path5115"
         d="M17.541016 34.513672C18.7815409532 34.513672 19.8994925628 34.0110711651 20.7110829724 33.1994807555L-120.710273265 174.620836993C-121.521863674 175.432427402 -122.639815284 175.935028237 -123.880340237 175.935028237Z" />
      <path
         id="path5117"
         d="M20.7110829724 33.1994807555C21.2741139144 32.6364498135 21.6897017492 31.924710801 21.896484 31.128906L-119.524872237 172.550262237C-119.731654488 173.346067038 -120.147242323 174.057806051 -120.710273265 174.620836993Z" />
      <path
         id="path5119"
         d="M21.896484 31.128906L24.199219 31.128906L-117.222137237 172.550262237L-119.524872237 172.550262237Z" />
      <path
         id="path5121"
         d="M24.199219 31.128906L24.199219 43.363281L-117.222137237 184.784637237L-117.222137237 172.550262237Z" />
      <path
         id="path5123"
         d="M24.199219 43.363281C24.199219 43.988122 24.704754 44.494141 25.330078 44.494141L-116.091278237 185.915497237C-116.716602237 185.915497237 -117.222137237 185.409478237 -117.222137237 184.784637237Z" />
      <path
         id="path5125"
         d="M25.330078 44.494141L31.978516 44.494141L-109.442840237 185.915497237L-116.091278237 185.915497237Z" />
      <path
         id="path5127"
         d="M31.978516 44.494141L31.142578 46.703125L-110.278778237 188.124481237L-109.442840237 185.915497237Z" />
      <path
         id="path5129"
         d="M31.142578 46.703125C31.113888 46.781535 31.133343 46.871394 31.195312 46.927734L-110.226044237 188.349090237C-110.288013237 188.292750237 -110.307468237 188.202891237 -110.278778237 188.124481237Z" />
      <path
         id="path5131"
         d="M31.195312 46.927734C31.258343 46.984074 31.348662 46.996504 31.423828 46.958984L-109.997528237 188.380340237C-110.072694237 188.417860237 -110.163013237 188.405430237 -110.226044237 188.349090237Z" />
      <path
         id="path5133"
         d="M31.423828 46.958984L38.328125 43.544922L-103.093231237 184.966278237L-109.997528237 188.380340237Z" />
      <path
         id="path5135"
         d="M38.328125 43.544922C38.3492648381 43.5345941633 38.3681625297 43.5210132636 38.3842392912 43.504936502L-103.037116946 184.926292739C-103.053193708 184.942369501 -103.072091399 184.955950401 -103.093231237 184.966278237Z" />
      <path
         id="path5137"
         d="M38.3842392912 43.504936502C38.4212907777 43.4678850155 38.443359 43.4175768518 38.443359 43.363281L-102.977997237 184.784637237C-102.977997237 184.838933089 -103.00006546 184.889241253 -103.037116946 184.926292739Z" />
      <path
         id="path5139"
         d="M38.443359 43.363281C38.443359 43.285911 38.397912 43.21403 38.328125 43.179688L-103.093231237 184.601044237C-103.023444237 184.635386237 -102.977997237 184.707267237 -102.977997237 184.784637237Z" />
      <path
         id="path5141"
         d="M38.328125 43.179688L31.421875 39.767578L-109.999481237 181.188934237L-103.093231237 184.601044237Z" />
      <path
         id="path5143"
         d="M31.421875 39.767578C31.346705 39.730068 31.258342 39.742488 31.195312 39.798828L-110.226044237 181.220184237C-110.163014237 181.163844237 -110.074651237 181.151424237 -109.999481237 181.188934237Z" />
      <path
         id="path5145"
         d="M31.195312 39.798828C31.1928890586 39.8010297503 31.1905295672 39.8032796081 31.1882340407 39.8055751346L-110.233122197 181.226931372C-110.23082667 181.224635845 -110.228467179 181.222385988 -110.226044237 181.220184237Z" />
      <path
         id="path5147"
         d="M31.1882340407 39.8055751346C31.1317899545 39.8620192208 31.1140194487 39.9460748186 31.142578 40.021484L-110.278778237 181.442840237C-110.307336789 181.367431056 -110.289566283 181.283375458 -110.233122197 181.226931372Z" />
      <path
         id="path5149"
         d="M31.142578 40.021484L31.978516 42.230469L-109.442840237 183.651825237L-110.278778237 181.442840237Z" />
      <path
         id="path5151"
         d="M31.978516 42.230469L26.460938 42.230469L-114.960418237 183.651825237L-109.442840237 183.651825237Z" />
      <path
         id="path5153"
         d="M26.460938 42.230469L26.460938 17.765625L-114.960418237 159.186981237L-114.960418237 183.651825237Z" />
      <path
         id="path5155"
         d="M26.460938 17.765625L31.978516 17.765625L-109.442840237 159.186981237L-114.960418237 159.186981237Z" />
      <path
         id="path5157"
         d="M31.978516 17.765625L31.142578 19.974609L-110.278778237 161.395965237L-109.442840237 159.186981237Z" />
      <path
         id="path5159"
         d="M31.142578 19.974609C31.113818 20.053089 31.133243 20.142879 31.195312 20.199219L-110.226044237 161.620575237C-110.288113237 161.564235237 -110.307538237 161.474445237 -110.278778237 161.395965237Z" />
      <path
         id="path5161"
         d="M31.195312 20.199219C31.258343 20.255559 31.348662 20.268049 31.423828 20.230469L-109.997528237 161.651825237C-110.072694237 161.689405237 -110.163013237 161.676915237 -110.226044237 161.620575237Z" />
      <path
         id="path5163"
         d="M31.423828 20.230469L38.328125 16.816406L-103.093231237 158.237762237L-109.997528237 161.651825237Z" />
      <path
         id="path5165"
         d="M38.328125 16.816406C38.3487724393 16.8062980351 38.3672809658 16.7929284161 38.3831113053 16.7770980766L-103.038244932 158.198454314C-103.054075271 158.214284653 -103.072583798 158.227654272 -103.093231237 158.237762237Z" />
      <path
         id="path5167"
         d="M38.3831113053 16.7770980766C38.4208424509 16.739366931 38.443359 16.6876566022 38.443359 16.632812L-102.977997237 158.054168237C-102.977997237 158.10901284 -103.000513786 158.160723168 -103.038244932 158.198454314Z" />
      <path
         id="path5169"
         d="M38.443359 16.632812C38.443359 16.555373 38.397912 16.485445 38.328125 16.451172L-103.093231237 157.872528237C-103.023444237 157.906801237 -102.977997237 157.976729237 -102.977997237 158.054168237Z" />
      <path
         id="path5171"
         d="M38.328125 16.451172L31.421875 13.037109L-109.999481237 154.458465237L-103.093231237 157.872528237Z" />
      <path
         id="path5173"
         d="M31.421875 13.037109C31.38429 13.018354 31.344287 13.012052 31.304688 13.017578L-110.116668237 154.438934237C-110.077069237 154.433408237 -110.037066237 154.439710237 -109.999481237 154.458465237Z" />
      <path
         id="path5175"
         d="M40.582031 13.097656C40.3930480504 13.097656 40.2216051473 13.174503815 40.0974360735 13.2986728887L-101.323920164 154.720029126C-101.19975109 154.595860052 -101.028308187 154.519012237 -100.839325237 154.519012237Z" />
      <path
         id="path5177"
         d="M40.0974360735 13.2986728887C39.9733576048 13.4227513574 39.896484 13.5940820503 39.896484 13.783203L-101.524872237 155.204559237C-101.524872237 155.015438288 -101.447998633 154.844107595 -101.323920164 154.720029126Z" />
      <path
         id="path5179"
         d="M39.896484 13.783203L39.896484 19.484375L-101.524872237 160.905731237L-101.524872237 155.204559237Z" />
      <path
         id="path5181"
         d="M39.896484 19.484375C39.896484 19.862756 40.204203 20.169922 40.582031 20.169922L-100.839325237 161.591278237C-101.217153237 161.591278237 -101.524872237 161.284112237 -101.524872237 160.905731237Z" />
      <path
         id="path5183"
         d="M40.582031 20.169922L46.283203 20.169922L-95.1381532373 161.591278237L-100.839325237 161.591278237Z" />
      <path
         id="path5185"
         d="M46.283203 20.169922C46.472160186 20.169922 46.6436102295 20.0930673184 46.7677893103 19.9688882377L-94.653566927 161.390244475C-94.7777460078 161.514423556 -94.9491960513 161.591278237 -95.1381532373 161.591278237Z" />
      <path
         id="path5187"
         d="M46.7677893103 19.9688882377C46.8918662835 19.8448112645 46.96875 19.6734876861 46.96875 19.484375L-94.4526062373 160.905731237C-94.4526062373 161.094843923 -94.5294899538 161.266167502 -94.653566927 161.390244475Z" />
      <path
         id="path5189"
         d="M46.96875 19.484375L46.96875 13.783203L-94.4526062373 155.204559237L-94.4526062373 160.905731237Z" />
      <path
         id="path5191"
         d="M46.96875 13.783203C46.96875 13.404823 46.660893 13.097656 46.283203 13.097656L-95.1381532373 154.519012237C-94.7604632373 154.519012237 -94.4526062373 154.826179237 -94.4526062373 155.204559237Z" />
      <path
         id="path5193"
         d="M46.283203 13.097656L40.582031 13.097656L-100.839325237 154.519012237L-95.1381532373 154.519012237Z" />
      <path
         id="path5195"
         d="M40.582031 39.826172C40.393039314 39.826172 40.2215892962 39.9030094058 40.0974188533 40.0271798487L-101.323937384 181.448536086C-101.199766941 181.324365643 -101.028316923 181.247528237 -100.839325237 181.247528237Z" />
      <path
         id="path5197"
         d="M40.0974188533 40.0271798487C39.9733504923 40.1512482098 39.896484 40.3225718139 39.896484 40.511719L-101.524872237 181.933075237C-101.524872237 181.743928051 -101.448005745 181.572604447 -101.323937384 181.448536086Z" />
      <path
         id="path5199"
         d="M39.896484 40.511719L39.896484 46.212891L-101.524872237 187.634247237L-101.524872237 181.933075237Z" />
      <path
         id="path5201"
         d="M39.896484 46.212891C39.896484 46.591271 40.204203 46.898438 40.582031 46.898438L-100.839325237 188.319794237C-101.217153237 188.319794237 -101.524872237 188.012627237 -101.524872237 187.634247237Z" />
      <path
         id="path5203"
         d="M40.582031 46.898438L46.283203 46.898438L-95.1381532373 188.319794237L-100.839325237 188.319794237Z" />
      <path
         id="path5205"
         d="M46.283203 46.898438C46.4721600612 46.898438 46.6436100031 46.8215831697 46.7677890642 46.6974041086L-94.6535671731 188.118760346C-94.7777462342 188.242939407 -94.9491961761 188.319794237 -95.1381532373 188.319794237Z" />
      <path
         id="path5207"
         d="M46.7677890642 46.6974041086C46.8918661818 46.573326991 46.96875 46.4020033113 46.96875 46.212891L-94.4526062373 187.634247237C-94.4526062373 187.823359549 -94.5294900555 187.994683228 -94.6535671731 188.118760346Z" />
      <path
         id="path5209"
         d="M46.96875 46.212891L46.96875 40.511719L-94.4526062373 181.933075237L-94.4526062373 187.634247237Z" />
      <path
         id="path5211"
         d="M46.96875 40.511719C46.96875 40.133269 46.660893 39.826172 46.283203 39.826172L-95.1381532373 181.247528237C-94.7604632373 181.247528237 -94.4526062373 181.554625237 -94.4526062373 181.933075237Z" />
      <path
         id="path5213"
         d="M46.283203 39.826172L40.582031 39.826172L-100.839325237 181.247528237L-95.1381532373 181.247528237Z" />
    </g>
    <path
       style="fill:#000000;fill-opacity:1;opacity:0.314"
       d="M 31.304688 13.017578 C 31.265088 13.023104 31.226827 13.040189 31.195312 13.068359 C 31.133312 13.124699 31.112858 13.214563 31.142578 13.292969 L 31.978516 15.501953 L 25.330078 15.501953 C 24.704754 15.501953 24.199219 16.007972 24.199219 16.632812 L 24.199219 28.867188 L 21.896484 28.867188 C 21.391632 26.924256 19.64214 25.482422 17.541016 25.482422 C 15.04841 25.482422 13.027344 27.504337 13.027344 29.998047 C 13.027344 32.491688 15.048341 34.513672 17.541016 34.513672 C 19.64214 34.513672 21.391632 33.071837 21.896484 31.128906 L 24.199219 31.128906 L 24.199219 43.363281 C 24.199219 43.988122 24.704754 44.494141 25.330078 44.494141 L 31.978516 44.494141 L 31.142578 46.703125 C 31.113888 46.781535 31.133343 46.871394 31.195312 46.927734 C 31.258343 46.984074 31.348662 46.996504 31.423828 46.958984 L 38.328125 43.544922 C 38.397985 43.510792 38.443359 43.441136 38.443359 43.363281 C 38.443359 43.285911 38.397912 43.21403 38.328125 43.179688 L 31.421875 39.767578 C 31.346705 39.730068 31.258342 39.742488 31.195312 39.798828 C 31.133312 39.855168 31.112858 39.943008 31.142578 40.021484 L 31.978516 42.230469 L 26.460938 42.230469 L 26.460938 17.765625 L 31.978516 17.765625 L 31.142578 19.974609 C 31.113818 20.053089 31.133243 20.142879 31.195312 20.199219 C 31.258343 20.255559 31.348662 20.268049 31.423828 20.230469 L 38.328125 16.816406 C 38.397985 16.782206 38.443359 16.710667 38.443359 16.632812 C 38.443359 16.555373 38.397912 16.485445 38.328125 16.451172 L 31.421875 13.037109 C 31.38429 13.018354 31.344287 13.012052 31.304688 13.017578 z M 40.582031 13.097656 C 40.204203 13.097656 39.896484 13.404823 39.896484 13.783203 L 39.896484 19.484375 C 39.896484 19.862756 40.204203 20.169922 40.582031 20.169922 L 46.283203 20.169922 C 46.660962 20.169922 46.96875 19.862756 46.96875 19.484375 L 46.96875 13.783203 C 46.96875 13.404823 46.660893 13.097656 46.283203 13.097656 L 40.582031 13.097656 z M 40.582031 39.826172 C 40.204203 39.826172 39.896484 40.133269 39.896484 40.511719 L 39.896484 46.212891 C 39.896484 46.591271 40.204203 46.898438 40.582031 46.898438 L 46.283203 46.898438 C 46.660962 46.898438 46.96875 46.591271 46.96875 46.212891 L 46.96875 40.511719 C 46.96875 40.133269 46.660893 39.826172 46.283203 39.826172 L 40.582031 39.826172 z "
       id="path5058" />
  </g>
  <path
     id="path4972"
     d="M 31.304688 13.017578 C 31.265088 13.023104 31.226827 13.040189 31.195312 13.068359 C 31.133312 13.124699 31.112858 13.214563 31.142578 13.292969 L 31.978516 15.501953 L 25.330078 15.501953 C 24.704754 15.501953 24.199219 16.007972 24.199219 16.632812 L 24.199219 28.867188 L 21.896484 28.867188 C 21.391632 26.924256 19.64214 25.482422 17.541016 25.482422 C 15.04841 25.482422 13.027344 27.504337 13.027344 29.998047 C 13.027344 32.491688 15.048341 34.513672 17.541016 34.513672 C 19.64214 34.513672 21.391632 33.071837 21.896484 31.128906 L 24.199219 31.128906 L 24.199219 43.363281 C 24.199219 43.988122 24.704754 44.494141 25.330078 44.494141 L 31.978516 44.494141 L 31.142578 46.703125 C 31.113888 46.781535 31.133343 46.871394 31.195312 46.927734 C 31.258343 46.984074 31.348662 46.996504 31.423828 46.958984 L 38.328125 43.544922 C 38.397985 43.510792 38.443359 43.441136 38.443359 43.363281 C 38.443359 43.285911 38.397912 43.21403 38.328125 43.179688 L 31.421875 39.767578 C 31.346705 39.730068 31.258342 39.742488 31.195312 39.798828 C 31.133312 39.855168 31.112858 39.943008 31.142578 40.021484 L 31.978516 42.230469 L 26.460938 42.230469 L 26.460938 17.765625 L 31.978516 17.765625 L 31.142578 19.974609 C 31.113818 20.053089 31.133243 20.142879 31.195312 20.199219 C 31.258343 20.255559 31.348662 20.268049 31.423828 20.230469 L 38.328125 16.816406 C 38.397985 16.782206 38.443359 16.710667 38.443359 16.632812 C 38.443359 16.555373 38.397912 16.485445 38.328125 16.451172 L 31.421875 13.037109 C 31.38429 13.018354 31.344287 13.012052 31.304688 13.017578 z M 40.582031 13.097656 C 40.204203 13.097656 39.896484 13.404823 39.896484 13.783203 L 39.896484 19.484375 C 39.896484 19.862756 40.204203 20.169922 40.582031 20.169922 L 46.283203 20.169922 C 46.660962 20.169922 46.96875 19.862756 46.96875 19.484375 L 46.96875 13.783203 C 46.96875 13.404823 46.660893 13.097656 46.283203 13.097656 L 40.582031 13.097656 z M 40.582031 39.826172 C 40.204203 39.826172 39.896484 40.133269 39.896484 40.511719 L 39.896484 46.212891 C 39.896484 46.591271 40.204203 46.898438 40.582031 46.898438 L 46.283203 46.898438 C 46.660962 46.898438 46.96875 46.591271 46.96875 46.212891 L 46.96875 40.511719 C 46.96875 40.133269 46.660893 39.826172 46.283203 39.826172 L 40.582031 39.826172 z "
     style="fill:#ffffff" />
  <g
     transform="matrix(0.0689594,0,0,0.0689594,13.015552,13.016313)"
     id="g4978" />
  <g
     transform="matrix(0.0689594,0,0,0.0689594,13.015552,13.016313)"
     id="g4980" />
  <g
     transform="matrix(0.0689594,0,0,0.0689594,13.015552,13.016313)"
     id="g4982" />
  <g
     transform="matrix(0.0689594,0,0,0.0689594,13.015552,13.016313)"
     id="g4984" />
  <g
     transform="matrix(0.0689594,0,0,0.0689594,13.015552,13.016313)"
     id="g4986" />
  <g
     transform="matrix(0.0689594,0,0,0.0689594,13.015552,13.016313)"
     id="g4988" />
  <g
     transform="matrix(0.0689594,0,0,0.0689594,13.015552,13.016313)"
     id="g4990" />
  <g
     transform="matrix(0.0689594,0,0,0.0689594,13.015552,13.016313)"
     id="g4992" />
  <g
     transform="matrix(0.0689594,0,0,0.0689594,13.015552,13.016313)"
     id="g4994" />
  <g
     transform="matrix(0.0689594,0,0,0.0689594,13.015552,13.016313)"
     id="g4996" />
  <g
     transform="matrix(0.0689594,0,0,0.0689594,13.015552,13.016313)"
     id="g4998" />
  <g
     transform="matrix(0.0689594,0,0,0.0689594,13.015552,13.016313)"
     id="g5000" />
  <g
     transform="matrix(0.0689594,0,0,0.0689594,13.015552,13.016313)"
     id="g5002" />
  <g
     transform="matrix(0.0689594,0,0,0.0689594,13.015552,13.016313)"
     id="g5004" />
  <g
     transform="matrix(0.0689594,0,0,0.0689594,13.015552,13.016313)"
     id="g5006" />
</svg>
